<?xml version="1.0" encoding="UTF-8"?>
<svg id="Layer_1" xmlns="http://www.w3.org/2000/svg" version="1.1" viewBox="0 0 612 792">
  <!-- Generator: Adobe Illustrator 29.4.0, SVG Export Plug-In . SVG Version: 2.1.0 Build 152)  -->
  <defs>
    <style>
      .st0 {
        fill: #fff;
      }

      .st0, .st1, .st2 {
        stroke-miterlimit: 10;
      }

      .st0, .st2 {
        stroke: #231f20;
      }

      .st1 {
        fill: #fff6d2;
        stroke: #603913;
        stroke-width: 2px;
      }

      .st2 {
        fill: none;
        stroke-width: 2.5px;
      }

      .st3 {
        fill: #39b54a;
        font-family: CooperBlack, 'Cooper Black';
        font-size: 48px;
      }
    </style>
  </defs>
  <rect class="st1" x="148.38" y="212.37" width="241.41" height="241.41" rx="20.59" ry="20.59"/>
  <g>
    <circle class="st2" cx="195.36" cy="360.35" r="4.97"/>
    <path class="st2" d="M222.6,286.55c-13.41-18.79-34.05-18.14-46.33-10.02,0,0-18.19,12.78-13.5,36.46"/>
    <path class="st2" d="M164.96,312.99h58.14c1.48,0,2.53,1.58,2.08,3.13l-8.98,31.09c-.29,1-1.13,1.67-2.08,1.67h-36.96c-.87,0-1.66-.57-2.01-1.45l-12.19-31.09c-.62-1.59.44-3.35,2.01-3.35Z"/>
    <line class="st0" x1="195.36" y1="348.89" x2="195.36" y2="312.99"/>
    <line class="st0" x1="209.19" y1="348.89" x2="209.19" y2="312.99"/>
    <line class="st0" x1="182.09" y1="348.89" x2="182.09" y2="312.99"/>
    <line class="st0" x1="170.72" y1="337.15" x2="219.1" y2="337.15"/>
    <line class="st0" x1="166.44" y1="325.45" x2="222.6" y2="325.45"/>
    <text class="st3" transform="translate(244.98 348.59)"><tspan x="0" y="0">SPOT</tspan></text>
  </g>
</svg>